<svg width="24" height="24" viewBox="0 0 24 24" fill="none" xmlns="http://www.w3.org/2000/svg">
<path fill-rule="evenodd" clip-rule="evenodd" d="M15.2325 8.74782H10.9777C10.684 8.74782 10.4459 8.5097 10.4459 8.21597V2.53185C10.4459 2.23812 10.684 2 10.9777 2H21.3487C21.6425 2 21.8806 2.23812 21.8806 2.53185V8.21597C21.8806 8.5097 21.6425 8.74782 21.3487 8.74782H18.1577C17.8639 8.74782 17.6258 8.98593 17.6258 9.27966V12.9029C17.6258 13.1966 17.3877 13.4347 17.094 13.4347H16.2962C16.0025 13.4347 15.7643 13.1966 15.7643 12.9029V9.27966C15.7643 8.98593 15.5262 8.74782 15.2325 8.74782ZM9.17996 13.9666H6.91828C6.6536 13.9666 6.42921 14.1612 6.39178 14.4232L5.48004 20.8054C5.43427 21.1258 5.68288 21.4124 6.00654 21.4124H9.69372C9.83477 21.4124 9.97005 21.4685 10.0698 21.5682L11.3459 22.8443C11.4503 22.9487 11.5934 23.005 11.7409 22.9997L18.4426 22.7604C18.7287 22.7502 18.9554 22.5152 18.9554 22.2289V21.4124C18.9554 21.1187 18.7173 20.8806 18.4236 20.8806H15.6314C15.4111 20.8806 15.2325 20.702 15.2325 20.4817C15.2325 20.2614 15.4111 20.0828 15.6314 20.0828H20.0191C20.3129 20.0828 20.551 19.8447 20.551 19.551V19.285C20.551 18.9913 20.3129 18.7532 20.0191 18.7532H15.3655C15.1452 18.7532 14.9666 18.5746 14.9666 18.3543C14.9666 18.134 15.1452 17.9554 15.3655 17.9554H20.551C20.8447 17.9554 21.0828 17.7173 21.0828 17.4236V17.1577C21.0828 16.8639 20.8447 16.6258 20.551 16.6258H14.468C14.2477 16.6258 14.0691 16.4472 14.0691 16.2269C14.0691 16.0066 14.2477 15.828 14.468 15.828H20.551C20.8447 15.828 21.0828 15.5899 21.0828 15.2962V14.7643C21.0828 14.4706 20.8447 14.2325 20.551 14.2325H13.7699C13.5496 14.2325 13.371 14.0539 13.371 13.8336C13.371 13.6133 13.5496 13.4347 13.7699 13.4347H14.1688C14.4625 13.4347 14.7006 13.1966 14.7006 12.9029V12.371C14.7006 12.0773 14.4625 11.8392 14.1688 11.8392H11.9777C11.8474 11.8392 11.7217 11.887 11.6244 11.9735L9.5333 13.8322C9.43595 13.9188 9.31022 13.9666 9.17996 13.9666ZM5.04601 13.9666H4.52496C4.26029 13.9666 4.03589 14.1612 3.99846 14.4232L3.08672 20.8054C3.04095 21.1258 3.28957 21.4124 3.61323 21.4124H4.13427C4.39895 21.4124 4.62335 21.2178 4.66078 20.9558L5.57251 14.5736C5.61829 14.2532 5.36967 13.9666 5.04601 13.9666ZM4.86147 4.39331H4.0637C3.89629 4.39331 3.73866 4.47213 3.63822 4.60605L3.10637 5.31518C3.03732 5.40724 3 5.51922 3 5.63429V6.56633C3 6.70738 3.05603 6.84266 3.15577 6.9424L3.642 7.42862C3.74174 7.52837 3.87701 7.5844 4.01807 7.5844H4.90709C5.04815 7.5844 5.18342 7.52837 5.28316 7.42862L5.76939 6.9424C5.86913 6.84266 5.92516 6.70738 5.92516 6.56633V5.63429C5.92516 5.51922 5.88784 5.40724 5.81879 5.31518L5.28694 4.60605C5.1865 4.47213 5.02887 4.39331 4.86147 4.39331ZM19.2129 12.777C19.5291 12.5134 19.39 12.0002 18.9839 11.9326C18.6906 11.8837 18.4236 12.1099 18.4236 12.4073C18.4236 12.8153 18.8995 13.0382 19.2129 12.777ZM11.7753 3.59552C11.7753 3.44866 11.8944 3.3296 12.0412 3.3296H20.5508C20.6977 3.3296 20.8167 3.44866 20.8167 3.59552V7.31845C20.8167 7.46532 20.6977 7.58438 20.5508 7.58438H12.0412C11.8944 7.58438 11.7753 7.46532 11.7753 7.31845V3.59552ZM12.0412 2.79775C11.6006 2.79775 11.2435 3.15492 11.2435 3.59552V7.31845C11.2435 7.75905 11.6006 8.11623 12.0412 8.11623H20.5508C20.9914 8.11623 21.3486 7.75905 21.3486 7.31845V3.59552C21.3486 3.15493 20.9914 2.79775 20.5508 2.79775H12.0412ZM16.108 4.9574C16.2118 4.85355 16.3802 4.85355 16.4841 4.9574L16.7381 5.21141C16.8525 5.32584 16.839 5.51509 16.7096 5.61218L16.4556 5.80269C16.361 5.8736 16.231 5.8736 16.1365 5.80269L15.8825 5.61218C15.753 5.51509 15.7395 5.32584 15.854 5.21141L16.108 4.9574ZM16.8601 4.58133C16.5486 4.26978 16.0435 4.26978 15.7319 4.58133L15.4779 4.83534C15.1346 5.17862 15.175 5.74637 15.5633 6.03766L15.8174 6.22817C16.101 6.44091 16.491 6.44091 16.7747 6.22817L17.0287 6.03766C17.4171 5.74637 17.4574 5.17862 17.1141 4.83534L16.8601 4.58133Z" fill="#03A151"/>
</svg>
