<svg width="24" height="24" viewBox="0 0 24 24" fill="none" xmlns="http://www.w3.org/2000/svg">
<path d="M6.40741 13.1481H2.77778V14.4444H6.40741V13.1481Z" fill="#03A151"/>
<path d="M8.48148 12.8889H7.18518V15.7407L4.07407 19.6296H2.77778V21.1852H4.07407L8.48148 15.7407V12.8889Z" fill="#03A151"/>
<path d="M3.81481 14.963H6.40741V15.7407L3.81481 18.8519V14.963Z" fill="#03A151"/>
<path d="M11.0741 14.963H9V16.2593L4.33333 21.7037V22.2222H10.2963V18.8519H11.0741V14.963Z" fill="#03A151"/>
<path d="M9 14.4444V13.1481H11.8519V14.4444H9Z" fill="#03A151"/>
<path d="M7.44444 9V12.1111H12.6296V14.963H11.8519V18.3333H13.4074V14.7037H17.2963V9H7.44444Z" fill="#03A151"/>
<path d="M6.40741 8.48148V7.44444H18.3333V8.48148H6.40741Z" fill="#03A151"/>
<path d="M7.44444 6.14815V6.92593H18.0741V6.14815H17.2963V5.37037H16.5185V4.59259H15.4815V3.55556H14.7037V2.77778H13.6667V2H11.8519V2.77778H10.8148V3.55556H10.037V4.59259H9.25926V5.37037H8.22222V6.14815H7.44444Z" fill="#03A151"/>
<path d="M18.5926 10.8148H17.8148V12.3704H19.6296V3.81481H23V2H18.8519V3.81481V10.8148H18.5926Z" fill="#03A151"/>
<path d="M19.1111 15.7407H14.4444V18.0741H19.1111V15.7407Z" fill="#03A151"/>
<path d="M16 19.1111H11.5926V21.963H16V19.1111Z" fill="#03A151"/>
<path d="M21.4444 19.1111H17.037V21.963H21.4444V19.1111Z" fill="#03A151"/>
<path d="M3.2963 5.62963H2L4.33333 12.6296H5.62963L3.2963 5.62963Z" fill="#03A151"/>
</svg>
