<svg width="24" height="24" viewBox="0 0 24 24" fill="none" xmlns="http://www.w3.org/2000/svg">
<path d="M3 17.2488V18.75C3 19.9893 5.9918 21 9.75 21C13.4449 21 16.5 19.9893 16.5 18.75V17.2471C15.0516 18.2719 12.3937 18.75 9.75 18.75C7.10625 18.75 4.4502 18.2719 3 17.2488ZM14.25 7.5C17.9449 7.5 21 6.48926 21 5.25C21 4.01074 17.9766 3 14.25 3C10.4918 3 7.5 4.01074 7.5 5.25C7.5 6.48926 10.4918 7.5 14.25 7.5ZM3 13.5609V15.375C3 16.6143 5.9918 17.625 9.75 17.625C13.4449 17.625 16.5 16.6143 16.5 15.375V13.5609C15.0516 14.7562 12.3902 15.375 9.75 15.375C7.10977 15.375 4.4502 14.7562 3 13.5609ZM17.625 13.9477C19.6395 13.5539 21 12.8367 21 12V10.4953C20.1826 11.0754 18.9873 11.4667 17.625 11.7082V13.9477ZM9.75 8.625C5.9918 8.625 3 9.88359 3 11.4375C3 12.9914 5.9918 14.25 9.75 14.25C13.4449 14.25 16.5 12.9932 16.5 11.4375C16.5 9.88184 13.4449 8.625 9.75 8.625ZM17.4563 10.6008C19.5691 10.2246 21 9.47578 21 8.625V7.12031C19.752 8.00379 17.6074 8.4784 15.3469 8.59266C16.3875 9.09609 17.1504 9.77109 17.4563 10.6008Z" fill="#03A151"/>
</svg>
