<svg width="24" height="24" viewBox="0 0 24 24" fill="none" xmlns="http://www.w3.org/2000/svg">
<path d="M12 14C14.7614 14 17 11.3137 17 8C17 4.68629 14.7614 2 12 2C9.23858 2 7 4.68629 7 8C7 11.3137 9.23858 14 12 14Z" fill="url(#paint0_linear_7074_664)"/>
<path d="M21.8002 19.1C20.9002 17.3 19.2002 15.8 17.0002 14.9C16.4002 14.7 15.7002 14.7 15.2002 15C14.2002 15.6 13.2002 15.9 12.0002 15.9C10.8002 15.9 9.80022 15.6 8.80022 15C8.30022 14.8 7.60022 14.7 7.00022 15C4.80022 15.9 3.10022 17.4 2.20022 19.2C1.50022 20.5 2.60022 22 4.10022 22H19.9002C21.4002 22 22.5002 20.5 21.8002 19.1Z" fill="url(#paint1_linear_7074_664)"/>
<defs>
<linearGradient id="paint0_linear_7074_664" x1="12" y1="2" x2="12" y2="14" gradientUnits="userSpaceOnUse">
<stop stop-color="#58605C"/>
<stop offset="1" stop-color="#004921"/>
</linearGradient>
<linearGradient id="paint1_linear_7074_664" x1="12.0002" y1="14.7606" x2="12.0002" y2="22" gradientUnits="userSpaceOnUse">
<stop stop-color="#58605C"/>
<stop offset="1" stop-color="#004921"/>
</linearGradient>
</defs>
</svg>
