<svg width="24" height="24" viewBox="0 0 24 24" fill="none" xmlns="http://www.w3.org/2000/svg">
<path d="M19.5516 4.35206C17.5349 2.33062 14.8493 1.21875 11.9951 1.21875C6.10392 1.21875 1.31011 6.01261 1.31011 11.9037C1.31011 13.7855 1.80108 15.6241 2.73483 17.2462L1.21875 22.7812L6.88369 21.2939C8.44313 22.1458 10.1998 22.5935 11.9903 22.5935H11.9951C17.8815 22.5935 22.7811 17.7996 22.7811 11.9085C22.7811 9.05437 21.5683 6.37355 19.5516 4.35206Z" fill="#2CB742"/>
<path d="M11.9934 20.7934C10.3955 20.7934 8.83119 20.365 7.46909 19.5564L7.14664 19.3639L3.78711 20.2447L4.68238 16.967L4.47059 16.6301C3.5802 15.215 3.11328 13.5834 3.11328 11.9037C3.11328 7.00881 7.0985 3.02368 11.9982 3.02368C14.371 3.02368 16.5994 3.94778 18.2744 5.62749C19.9493 7.30726 20.9793 9.53575 20.9745 11.9086C20.9745 16.8083 16.8882 20.7934 11.9934 20.7934Z" fill="white"/>
<path d="M16.8672 14.1417C16.6025 14.0071 15.2886 13.3619 15.0431 13.2754C14.7976 13.1839 14.6196 13.1407 14.4415 13.4102C14.2634 13.6797 13.7532 14.2764 13.5943 14.4594C13.4403 14.6375 13.2815 14.6616 13.0168 14.5268C11.4477 13.7423 10.4178 13.1263 9.38297 11.3502C9.10861 10.8785 9.65738 10.9122 10.1675 9.89189C10.2542 9.71372 10.2109 9.55974 10.1434 9.42497C10.0761 9.29021 9.54178 7.97625 9.32039 7.44197C9.10383 6.92218 8.88244 6.99436 8.71875 6.98475C8.56477 6.9751 8.38659 6.9751 8.20861 6.9751C8.03048 6.9751 7.74173 7.0425 7.49625 7.30721C7.25081 7.57674 6.5625 8.22174 6.5625 9.53569C6.5625 10.8496 7.52025 12.1203 7.65023 12.2984C7.78495 12.4764 9.53217 15.1718 12.213 16.3317C13.9072 17.0633 14.5714 17.1258 15.4185 17.0007C15.9335 16.9237 16.9972 16.3557 17.2186 15.73C17.44 15.1044 17.44 14.5702 17.3726 14.4595C17.31 14.339 17.1319 14.2717 16.8672 14.1417Z" fill="#2CB742"/>
</svg>
